<svg xmlns="http://www.w3.org/2000/svg" version="1.1" viewBox="-5.0 -10.0 110.0 135.0">
 <path d="m34.375 87.5h-26.953c-1.7266 0-3.125-1.3984-3.125-3.125v-10.938c0-1.7266 1.3984-3.125 3.125-3.125h26.953c1.7266 0 3.125 1.3984 3.125 3.125v10.938c0 1.7266-1.3984 3.125-3.125 3.125zm-23.828-6.25h20.703v-4.6875h-20.703z"/>
 <path d="m7.4219 100c-1.7266 0-3.125-1.3984-3.125-3.125v-12.5c0-1.7266 1.3984-3.125 3.125-3.125s3.125 1.3984 3.125 3.125v12.5c0 1.7266-1.3984 3.125-3.125 3.125z"/>
 <path d="m7.418 76.562c-1.5156 0-2.8516-1.1094-3.0859-2.6562l-4.2969-28.121c-0.25781-1.7031 0.91406-3.3008 2.6172-3.5625 1.7031-0.26172 3.3008 0.91406 3.5625 2.6172l4.2969 28.125c0.28906 1.8906-1.1758 3.5977-3.0938 3.5977z"/>
 <path d="m34.375 100c-1.7266 0-3.125-1.3984-3.125-3.125v-12.5c0-1.7266 1.3984-3.125 3.125-3.125s3.125 1.3984 3.125 3.125v12.5c0 1.7266-1.3984 3.125-3.125 3.125z"/>
 <path d="m92.578 87.5h-26.953c-1.7266 0-3.125-1.3984-3.125-3.125v-10.938c0-1.7266 1.3984-3.125 3.125-3.125h26.953c1.7266 0 3.125 1.3984 3.125 3.125v10.938c0 1.7266-1.3984 3.125-3.125 3.125zm-23.828-6.25h20.703v-4.6875h-20.703z"/>
 <path d="m92.578 100c-1.7266 0-3.125-1.3984-3.125-3.125v-12.5c0-1.7266 1.3984-3.125 3.125-3.125s3.125 1.3984 3.125 3.125v12.5c0 1.7266-1.3984 3.125-3.125 3.125z"/>
 <path d="m92.582 76.562c-1.9219 0-3.3789-1.7109-3.0938-3.5977l4.2969-28.125c0.25781-1.707 1.8555-2.8789 3.5625-2.6172 1.7031 0.25781 2.875 1.8555 2.6172 3.5625l-4.2969 28.125c-0.23438 1.5469-1.5664 2.6562-3.0859 2.6562z"/>
 <path d="m65.625 100c-1.7266 0-3.125-1.3984-3.125-3.125v-12.5c0-1.7266 1.3984-3.125 3.125-3.125s3.125 1.3984 3.125 3.125v12.5c0 1.7266-1.3984 3.125-3.125 3.125z"/>
 <path d="m50 100c-1.7266 0-3.125-1.3984-3.125-3.125v-71.094c0-1.7266 1.3984-3.125 3.125-3.125s3.125 1.3984 3.125 3.125v71.094c0 1.7266-1.3984 3.125-3.125 3.125z"/>
 <path d="m55.273 100h-10.547c-1.7266 0-3.125-1.3984-3.125-3.125s1.3984-3.125 3.125-3.125h10.547c1.7266 0 3.125 1.3984 3.125 3.125s-1.3984 3.125-3.125 3.125z"/>
 <path d="m73.633 64.062h-47.266c-1.7266 0-3.125-1.3984-3.125-3.125s1.3984-3.125 3.125-3.125h47.266c1.7266 0 3.125 1.3984 3.125 3.125s-1.3984 3.125-3.125 3.125z"/>
 <path d="m87.5 28.906h-75c-1.1328 0-2.1797-0.61719-2.7344-1.6094l-3.9062-7.0312c-0.92578-1.6641-0.15625-3.7656 1.6289-4.4414l41.41-15.621c0.71094-0.26562 1.4961-0.26562 2.207 0l41.406 15.625c1.7812 0.67188 2.5547 2.7734 1.6289 4.4414l-3.9062 7.0312c-0.55078 0.99219-1.5977 1.6094-2.7344 1.6094zm-73.164-6.25h71.32l1.2578-2.2578-36.914-13.93-36.918 13.93 1.2578 2.2578z"/>
 <path d="m31.25 28.906c-2.6094 0-4.1016-3.0664-2.4062-5.1172l18.75-22.656c1.1016-1.3281 3.0703-1.5156 4.3984-0.41406 1.3281 1.1016 1.5156 3.0703 0.41406 4.3984l-18.75 22.656c-0.61719 0.74609-1.5078 1.1328-2.4062 1.1328z"/>
 <path d="m68.75 28.906c-0.89844 0-1.7891-0.38672-2.4062-1.1328l-18.75-22.656c-1.1016-1.3281-0.91406-3.2969 0.41406-4.3984 1.3281-1.1016 3.2969-0.91406 4.3984 0.41406l18.75 22.656c1.6953 2.0508 0.20312 5.1172-2.4062 5.1172z"/>
<text x="0.0" y="117.5" font-size="5.0" font-weight="bold" font-family="Arbeit Regular, Helvetica, Arial-Unicode, Arial, Sans-serif" fill="#000000">Created by tezar tantular</text><text x="0.0" y="122.5" font-size="5.0" font-weight="bold" font-family="Arbeit Regular, Helvetica, Arial-Unicode, Arial, Sans-serif" fill="#000000">from Noun Project</text></svg>